<mxfile host="65bd71144e">
    <diagram id="vgSxF8sJhm8RB8RjVD5X" name="Page-1">
        <mxGraphModel dx="1023" dy="535" grid="1" gridSize="10" guides="1" tooltips="1" connect="1" arrows="1" fold="1" page="1" pageScale="1" pageWidth="850" pageHeight="1100" math="0" shadow="0">
            <root>
                <mxCell id="0"/>
                <mxCell id="1" parent="0"/>
                <mxCell id="fsrRaDV_KTPfm6xV9c6i-3" style="edgeStyle=orthogonalEdgeStyle;rounded=0;orthogonalLoop=1;jettySize=auto;html=1;exitX=0.5;exitY=1;exitDx=0;exitDy=0;entryX=0.5;entryY=0;entryDx=0;entryDy=0;" parent="1" source="fsrRaDV_KTPfm6xV9c6i-1" target="fsrRaDV_KTPfm6xV9c6i-2" edge="1">
                    <mxGeometry relative="1" as="geometry"/>
                </mxCell>
                <mxCell id="fsrRaDV_KTPfm6xV9c6i-1" value="Start Program" style="rounded=0;whiteSpace=wrap;html=1;" parent="1" vertex="1">
                    <mxGeometry x="310" y="50" width="120" height="60" as="geometry"/>
                </mxCell>
                <mxCell id="fsrRaDV_KTPfm6xV9c6i-6" style="edgeStyle=orthogonalEdgeStyle;rounded=0;orthogonalLoop=1;jettySize=auto;html=1;exitX=1;exitY=0.5;exitDx=0;exitDy=0;" parent="1" source="fsrRaDV_KTPfm6xV9c6i-2" edge="1">
                    <mxGeometry relative="1" as="geometry">
                        <mxPoint x="580" y="185" as="targetPoint"/>
                    </mxGeometry>
                </mxCell>
                <mxCell id="fsrRaDV_KTPfm6xV9c6i-35" style="edgeStyle=orthogonalEdgeStyle;rounded=0;orthogonalLoop=1;jettySize=auto;html=1;exitX=0.5;exitY=1;exitDx=0;exitDy=0;entryX=0.5;entryY=0;entryDx=0;entryDy=0;" parent="1" source="fsrRaDV_KTPfm6xV9c6i-2" target="fsrRaDV_KTPfm6xV9c6i-32" edge="1">
                    <mxGeometry relative="1" as="geometry"/>
                </mxCell>
                <mxCell id="fsrRaDV_KTPfm6xV9c6i-2" value="&lt;span&gt;Arguments pass?&lt;/span&gt;&lt;br&gt;&lt;span&gt;1. Type of waveforms&lt;/span&gt;&lt;br&gt;&lt;span&gt;2. Frequency&lt;/span&gt;&lt;br&gt;&lt;span&gt;3. Amplitude&lt;/span&gt;" style="rounded=0;whiteSpace=wrap;html=1;align=left;" parent="1" vertex="1">
                    <mxGeometry x="290" y="140" width="160" height="90" as="geometry"/>
                </mxCell>
                <mxCell id="fsrRaDV_KTPfm6xV9c6i-16" style="edgeStyle=orthogonalEdgeStyle;rounded=0;orthogonalLoop=1;jettySize=auto;html=1;exitX=0.5;exitY=1;exitDx=0;exitDy=0;entryX=0.5;entryY=0;entryDx=0;entryDy=0;" parent="1" source="fsrRaDV_KTPfm6xV9c6i-5" target="fsrRaDV_KTPfm6xV9c6i-14" edge="1">
                    <mxGeometry relative="1" as="geometry">
                        <Array as="points">
                            <mxPoint x="645" y="470"/>
                            <mxPoint x="210" y="470"/>
                        </Array>
                    </mxGeometry>
                </mxCell>
                <mxCell id="fsrRaDV_KTPfm6xV9c6i-5" value="&lt;br&gt;read from default setting file&amp;nbsp;" style="rounded=0;whiteSpace=wrap;html=1;align=center;" parent="1" vertex="1">
                    <mxGeometry x="580" y="150" width="130" height="70" as="geometry"/>
                </mxCell>
                <mxCell id="fsrRaDV_KTPfm6xV9c6i-7" value="No" style="text;html=1;strokeColor=none;fillColor=none;align=center;verticalAlign=middle;whiteSpace=wrap;rounded=0;" parent="1" vertex="1">
                    <mxGeometry x="480" y="150" width="60" height="30" as="geometry"/>
                </mxCell>
                <mxCell id="fsrRaDV_KTPfm6xV9c6i-13" value="Generate Waveforms via PCI" style="rounded=0;whiteSpace=wrap;html=1;align=center;" parent="1" vertex="1">
                    <mxGeometry x="150" y="780" width="120" height="60" as="geometry"/>
                </mxCell>
                <mxCell id="fsrRaDV_KTPfm6xV9c6i-20" style="edgeStyle=orthogonalEdgeStyle;rounded=0;orthogonalLoop=1;jettySize=auto;html=1;exitX=0.5;exitY=1;exitDx=0;exitDy=0;entryX=0.5;entryY=0;entryDx=0;entryDy=0;" parent="1" source="fsrRaDV_KTPfm6xV9c6i-14" target="fsrRaDV_KTPfm6xV9c6i-19" edge="1">
                    <mxGeometry relative="1" as="geometry"/>
                </mxCell>
                <mxCell id="fsrRaDV_KTPfm6xV9c6i-14" value="Thread #1" style="rounded=1;whiteSpace=wrap;html=1;align=center;" parent="1" vertex="1">
                    <mxGeometry x="150" y="530" width="120" height="60" as="geometry"/>
                </mxCell>
                <mxCell id="fsrRaDV_KTPfm6xV9c6i-22" style="edgeStyle=orthogonalEdgeStyle;rounded=0;orthogonalLoop=1;jettySize=auto;html=1;exitX=0.5;exitY=1;exitDx=0;exitDy=0;entryX=0.5;entryY=0;entryDx=0;entryDy=0;" parent="1" source="fsrRaDV_KTPfm6xV9c6i-19" target="fsrRaDV_KTPfm6xV9c6i-13" edge="1">
                    <mxGeometry relative="1" as="geometry"/>
                </mxCell>
                <mxCell id="fsrRaDV_KTPfm6xV9c6i-26" style="edgeStyle=orthogonalEdgeStyle;rounded=0;orthogonalLoop=1;jettySize=auto;html=1;exitX=1;exitY=0.5;exitDx=0;exitDy=0;entryX=0;entryY=0.5;entryDx=0;entryDy=0;" parent="1" source="fsrRaDV_KTPfm6xV9c6i-19" target="fsrRaDV_KTPfm6xV9c6i-25" edge="1">
                    <mxGeometry relative="1" as="geometry">
                        <mxPoint x="450" y="570" as="targetPoint"/>
                        <Array as="points">
                            <mxPoint x="320" y="670"/>
                            <mxPoint x="320" y="560"/>
                        </Array>
                    </mxGeometry>
                </mxCell>
                <mxCell id="3" style="edgeStyle=orthogonalEdgeStyle;rounded=0;orthogonalLoop=1;jettySize=auto;html=1;exitX=1;exitY=0.5;exitDx=0;exitDy=0;entryX=0.5;entryY=0;entryDx=0;entryDy=0;" edge="1" parent="1" source="fsrRaDV_KTPfm6xV9c6i-19" target="2">
                    <mxGeometry relative="1" as="geometry">
                        <Array as="points">
                            <mxPoint x="320" y="670"/>
                            <mxPoint x="320" y="510"/>
                            <mxPoint x="590" y="510"/>
                        </Array>
                    </mxGeometry>
                </mxCell>
                <mxCell id="fsrRaDV_KTPfm6xV9c6i-19" value="Start Thread #2 and Thread #3" style="rounded=0;whiteSpace=wrap;html=1;align=center;" parent="1" vertex="1">
                    <mxGeometry x="150" y="640" width="120" height="60" as="geometry"/>
                </mxCell>
                <mxCell id="fsrRaDV_KTPfm6xV9c6i-24" style="edgeStyle=orthogonalEdgeStyle;rounded=0;orthogonalLoop=1;jettySize=auto;html=1;exitX=0.5;exitY=1;exitDx=0;exitDy=0;entryX=0.5;entryY=0;entryDx=0;entryDy=0;" parent="1" source="fsrRaDV_KTPfm6xV9c6i-23" edge="1" target="fsrRaDV_KTPfm6xV9c6i-28">
                    <mxGeometry relative="1" as="geometry">
                        <mxPoint x="405" y="790" as="targetPoint"/>
                    </mxGeometry>
                </mxCell>
                <mxCell id="fsrRaDV_KTPfm6xV9c6i-23" value="Any keyboard / switch inputs?" style="rounded=0;whiteSpace=wrap;html=1;align=center;" parent="1" vertex="1">
                    <mxGeometry x="350" y="650" width="110" height="60" as="geometry"/>
                </mxCell>
                <mxCell id="fsrRaDV_KTPfm6xV9c6i-27" style="edgeStyle=orthogonalEdgeStyle;rounded=0;orthogonalLoop=1;jettySize=auto;html=1;exitX=0.5;exitY=1;exitDx=0;exitDy=0;entryX=0.5;entryY=0;entryDx=0;entryDy=0;" parent="1" source="fsrRaDV_KTPfm6xV9c6i-25" target="fsrRaDV_KTPfm6xV9c6i-23" edge="1">
                    <mxGeometry relative="1" as="geometry"/>
                </mxCell>
                <mxCell id="fsrRaDV_KTPfm6xV9c6i-25" value="Thread #2" style="rounded=1;whiteSpace=wrap;html=1;align=center;" parent="1" vertex="1">
                    <mxGeometry x="345" y="530" width="120" height="60" as="geometry"/>
                </mxCell>
                <mxCell id="fsrRaDV_KTPfm6xV9c6i-42" style="edgeStyle=orthogonalEdgeStyle;rounded=0;orthogonalLoop=1;jettySize=auto;html=1;exitX=1;exitY=0.5;exitDx=0;exitDy=0;entryX=1;entryY=0.5;entryDx=0;entryDy=0;" parent="1" source="fsrRaDV_KTPfm6xV9c6i-28" target="fsrRaDV_KTPfm6xV9c6i-23" edge="1">
                    <mxGeometry relative="1" as="geometry">
                        <Array as="points">
                            <mxPoint x="500" y="810"/>
                            <mxPoint x="500" y="680"/>
                        </Array>
                    </mxGeometry>
                </mxCell>
                <mxCell id="fsrRaDV_KTPfm6xV9c6i-28" value="Change settings" style="rounded=0;whiteSpace=wrap;html=1;align=center;" parent="1" vertex="1">
                    <mxGeometry x="345" y="780" width="120" height="60" as="geometry"/>
                </mxCell>
                <mxCell id="fsrRaDV_KTPfm6xV9c6i-29" value="Yes" style="text;html=1;strokeColor=none;fillColor=none;align=center;verticalAlign=middle;whiteSpace=wrap;rounded=0;" parent="1" vertex="1">
                    <mxGeometry x="310" y="240" width="60" height="30" as="geometry"/>
                </mxCell>
                <mxCell id="fsrRaDV_KTPfm6xV9c6i-36" style="edgeStyle=orthogonalEdgeStyle;rounded=0;orthogonalLoop=1;jettySize=auto;html=1;exitX=0;exitY=0.25;exitDx=0;exitDy=0;entryX=1;entryY=0.25;entryDx=0;entryDy=0;" parent="1" source="fsrRaDV_KTPfm6xV9c6i-32" target="fsrRaDV_KTPfm6xV9c6i-38" edge="1">
                    <mxGeometry relative="1" as="geometry">
                        <mxPoint x="220" y="310" as="targetPoint"/>
                    </mxGeometry>
                </mxCell>
                <mxCell id="fsrRaDV_KTPfm6xV9c6i-37" style="edgeStyle=orthogonalEdgeStyle;rounded=0;orthogonalLoop=1;jettySize=auto;html=1;exitX=0.5;exitY=1;exitDx=0;exitDy=0;entryX=0.5;entryY=0;entryDx=0;entryDy=0;" parent="1" source="fsrRaDV_KTPfm6xV9c6i-32" target="fsrRaDV_KTPfm6xV9c6i-14" edge="1">
                    <mxGeometry relative="1" as="geometry">
                        <Array as="points">
                            <mxPoint x="370" y="470"/>
                            <mxPoint x="210" y="470"/>
                        </Array>
                    </mxGeometry>
                </mxCell>
                <mxCell id="fsrRaDV_KTPfm6xV9c6i-32" value="Vaild arguments?" style="rounded=0;whiteSpace=wrap;html=1;align=center;" parent="1" vertex="1">
                    <mxGeometry x="310" y="280" width="120" height="60" as="geometry"/>
                </mxCell>
                <mxCell id="fsrRaDV_KTPfm6xV9c6i-40" style="edgeStyle=orthogonalEdgeStyle;rounded=0;orthogonalLoop=1;jettySize=auto;html=1;exitX=0.5;exitY=1;exitDx=0;exitDy=0;entryX=0;entryY=0.75;entryDx=0;entryDy=0;" parent="1" source="fsrRaDV_KTPfm6xV9c6i-38" target="fsrRaDV_KTPfm6xV9c6i-32" edge="1">
                    <mxGeometry relative="1" as="geometry"/>
                </mxCell>
                <mxCell id="fsrRaDV_KTPfm6xV9c6i-38" value="Ask user to provide correct arguments" style="rounded=0;whiteSpace=wrap;html=1;align=center;" parent="1" vertex="1">
                    <mxGeometry x="90" y="280" width="120" height="60" as="geometry"/>
                </mxCell>
                <mxCell id="fsrRaDV_KTPfm6xV9c6i-39" value="Yes" style="text;html=1;strokeColor=none;fillColor=none;align=center;verticalAlign=middle;whiteSpace=wrap;rounded=0;" parent="1" vertex="1">
                    <mxGeometry x="320" y="380" width="60" height="30" as="geometry"/>
                </mxCell>
                <mxCell id="fsrRaDV_KTPfm6xV9c6i-41" value="No" style="text;html=1;strokeColor=none;fillColor=none;align=center;verticalAlign=middle;whiteSpace=wrap;rounded=0;" parent="1" vertex="1">
                    <mxGeometry x="230" y="270" width="60" height="30" as="geometry"/>
                </mxCell>
                <mxCell id="4" style="edgeStyle=orthogonalEdgeStyle;rounded=0;orthogonalLoop=1;jettySize=auto;html=1;exitX=0.5;exitY=1;exitDx=0;exitDy=0;entryX=0.5;entryY=0;entryDx=0;entryDy=0;" edge="1" parent="1" source="2" target="5">
                    <mxGeometry relative="1" as="geometry">
                        <mxPoint x="590.2068965517242" y="640" as="targetPoint"/>
                    </mxGeometry>
                </mxCell>
                <mxCell id="2" value="Thread #3" style="rounded=1;whiteSpace=wrap;html=1;align=center;" vertex="1" parent="1">
                    <mxGeometry x="530" y="530" width="120" height="60" as="geometry"/>
                </mxCell>
                <mxCell id="5" value="Generate waveforms to terminal" style="rounded=0;whiteSpace=wrap;html=1;align=center;" vertex="1" parent="1">
                    <mxGeometry x="535" y="650" width="110" height="60" as="geometry"/>
                </mxCell>
                <mxCell id="7" value="Yes" style="text;html=1;strokeColor=none;fillColor=none;align=center;verticalAlign=middle;whiteSpace=wrap;rounded=0;" vertex="1" parent="1">
                    <mxGeometry x="350" y="740" width="60" height="30" as="geometry"/>
                </mxCell>
            </root>
        </mxGraphModel>
    </diagram>
</mxfile>